HIERARCHY
ROOT Hips
{
  OFFSET -975.484 85.9082 349.821
  CHANNELS 6 Xposition Yposition Zposition Zrotation Xrotation Yrotation
  JOINT RightUpLeg
  {
    OFFSET -8.9458 -8.66707 0.101652
    CHANNELS 3 Zrotation Xrotation Yrotation
    JOINT RightLeg
    {
      OFFSET 0 -44.4227 1.3727
      CHANNELS 3 Zrotation Xrotation Yrotation
      JOINT RightFoot
      {
        OFFSET 0.253549 -42.0924 -1.46059
        CHANNELS 3 Zrotation Xrotation Yrotation
        JOINT RightToes
        {
          OFFSET 0.04 -4.41509 8.4991
          CHANNELS 3 Zrotation Xrotation Yrotation
          End Site
          {
            OFFSET -0.08 -0.137448 9.77979
          }
        }
      }
    }
  }
  JOINT Spine
  {
    OFFSET 0 11.8905 0
    CHANNELS 3 Zrotation Xrotation Yrotation
    JOINT Spine1
    {
      OFFSET 0 25.6574 0.127663
      CHANNELS 3 Zrotation Xrotation Yrotation
      JOINT HEad
      {
        OFFSET 0 8.73416 0.011341
        CHANNELS 3 Zrotation Xrotation Yrotation
        End Site
        {
          OFFSET -0.29 12.7742 2.51395
        }
      }
      JOINT LeftShoulder1
      {
        OFFSET 8.99 -0.362252 -0.22
        CHANNELS 3 Zrotation Xrotation Yrotation
        JOINT LeftArm
        {
          OFFSET 10.2827 -0.00338 0.322123
          CHANNELS 3 Zrotation Xrotation Yrotation
          JOINT LeftForeArm
          {
            OFFSET 32.7669 0.099144 -1.42434
            CHANNELS 3 Zrotation Xrotation Yrotation
            JOINT LeftHand
            {
              OFFSET 27.5643 0.085362 1.02216
              CHANNELS 3 Zrotation Xrotation Yrotation
              End Site
              {
                OFFSET 16.7443 -0.6 1.50291
              }
            }
          }
        }
      }
      JOINT RightShoulder
      {
        OFFSET -8.99 -0.362252 -0.22
        CHANNELS 3 Zrotation Xrotation Yrotation
        JOINT RightArm
        {
          OFFSET -10.2827 -0.00338 0.322123
          CHANNELS 3 Zrotation Xrotation Yrotation
          JOINT RightForeArm
          {
            OFFSET -32.8971 0.099144 -1.42434
            CHANNELS 3 Zrotation Xrotation Yrotation
            JOINT RightHand
            {
              OFFSET -27.4921 0.085362 1.02216
              CHANNELS 3 Zrotation Xrotation Yrotation
              End Site
              {
                OFFSET -16.6312 -0.6 1.50291
              }
            }
          }
        }
      }
    }
  }
  JOINT LeftUpLeg
  {
    OFFSET 8.9458 -8.66707 0.101652
    CHANNELS 3 Zrotation Xrotation Yrotation
    JOINT LeftLeg
    {
      OFFSET 0 -44.4227 1.3727
      CHANNELS 3 Zrotation Xrotation Yrotation
      JOINT LeftFoot
      {
        OFFSET -0.253549 -42.0924 -1.46059
        CHANNELS 3 Zrotation Xrotation Yrotation
        JOINT LeftToes
        {
          OFFSET -0.04 -4.41509 8.4991
          CHANNELS 3 Zrotation Xrotation Yrotation
          End Site
          {
            OFFSET 0.08 -0.047448 9.77979
          }
        }
      }
    }
  }
}
MOTION
Frames:	21
Frame Time:	0.0166667
-953.142 96.1251 362.776 0.497512 -15.1246 3.69003 -1.55073 -20.5366 -8.88128 -8.52454 47.2689 4.93637 4.33225 -1.83469 0.0943293 0.0462048 0.000533403 0.662642 30.687 10.8774 -9.67617 -0.0230637 0.0234785 0.0326417 -41.2433 44.2171 46.4162 2.32951e-015 9.93923e-017 1.98785e-016 -172.429 -75.9222 175.954 -73.1536 55.4217 -45.9911 11.4646 14.9297 -3.92348 13.9407 12.4407 13.765 61.0051 -38.1213 70.9876 46.6235 57.5289 74.1045 -5.32863 15.4141 3.29732 9.73418 -18.5167 17.0206 30.0904 41.9647 -33.8464 -28.3256 0.187709 -1.11215 -1.18447e-009 1.5602e-007 -4.87131e-009 
-953.881 95.6334 361.677 -0.0588917 -14.702 1.60314 -5.12474 -21.4333 -12.3956 -11.0728 52.3998 10.4348 3.48489 -0.943874 0.0193212 0.0462048 0.000533403 0.662642 29.6783 12.72 -8.78063 -0.0815664 0.0918966 0.0740463 -40.8511 42.0156 46.119 4.47848e-016 0 -2.48481e-017 163.955 -74.0008 157.195 -75.8053 55.9737 -46.6027 7.86212 17.4564 -6.75163 14.8672 11.8919 14.7533 59.8364 -37.1108 70.8548 46.7351 56.8501 73.7113 -5.35836 14.8551 3.71256 8.28383 -18.4525 15.4988 31.39 41.2813 -31.5091 -24.8003 -0.627482 -1.15141 -1.18447e-009 1.5602e-007 -4.87131e-009 
-954.859 94.8918 360.731 -0.278328 -14.2894 0.197443 -7.96448 -21.9544 -15.151 -16.0467 58.3332 18.7976 -10.0489 0.210351 -1.16311 0.0462048 0.000533403 0.662642 27.4376 15.1012 -6.68432 -0.0595772 0.0782361 0.0853451 -39.1682 38.7442 44.0079 -1.3581e-015 0 9.93923e-017 150.784 -68.8915 149.043 -77.5688 58.6826 -49.6989 7.38523 18.2813 -6.84611 17.1851 10.6402 14.7653 58.4545 -36.284 70.3921 46.5923 56.4358 73.8865 -5.76256 15.5389 3.83556 7.27012 -18.4832 13.9742 31.1049 41.4273 -26.9838 -19.7594 -1.726 -1.0436 -1.18446e-009 1.5602e-007 -4.87131e-009 
-956.208 94.0895 359.769 -0.175614 -13.912 -0.592497 -12.4527 -21.9984 -16.6383 -24.4627 62.9382 30.0583 -0.783982 0.786623 0.3076 0.0462048 0.000533403 0.662642 24.1961 17.628 -3.31537 -0.0374373 0.0600659 0.0874037 -35.8822 36.047 40.3213 3.65267e-015 -7.95139e-016 -3.97569e-016 153.262 -67.1084 154.167 -79.0124 59.8646 -51.4859 7.76219 8.04967 9.01316 20.3217 8.67497 13.7727 57.2046 -35.564 69.6543 46.3603 56.3093 74.5039 -5.93403 15.1748 4.03773 7.94231 -18.5487 13.0556 27.8603 41.9307 -20.6101 -13.2355 -2.58324 -0.765763 -1.18446e-009 1.5602e-007 -4.87131e-009 
-957.909 93.1535 358.729 0.945747 -12.6938 1.04518 -17.2978 -21.7778 -19.2123 -35.0402 65.1295 43.2733 -0.730364 1.6646 -0.154607 0.0462048 0.000533403 0.662642 19.9984 18.5671 -0.092625 -0.0116773 0.0459559 0.0864425 -31.6568 33.9153 35.3637 2.98177e-016 7.95139e-016 -7.95139e-016 146.776 -69.1868 151.938 -82.1607 58.9614 -51.1137 6.75785 18.9407 -5.01338 23.8637 6.02293 11.7348 56.1622 -34.7991 68.7425 46.0711 56.4667 75.5106 -6.39484 15.6169 4.1191 8.73174 -20.0813 11.0965 22.0071 42.6511 -12.7776 -5.30035 -3.28962 -0.327956 -1.18447e-009 1.5602e-007 -4.87131e-009 
-960.014 92.1642 357.596 2.06325 -11.608 2.69576 -21.5656 -20.5651 -20.1159 -43.8046 64.6546 55.2278 5.70088 2.10742 0.101157 0.0462048 0.000533403 0.662642 15.9367 18.9754 2.98722 0.0320794 -0.00924932 -0.0151812 -28.1735 32.2145 31.14 2.98177e-015 1.59028e-015 -0 148.028 -70.076 154.941 -83.9103 58.1686 -51.3936 5.03664 17.6095 1.13735 27.1825 3.89468 10.0194 55.2124 -34.1609 67.6516 54.5862 56.3858 71.36 -7.18911 20.5604 2.62389 10.7727 -21.7741 10.2216 15.9736 42.7929 -6.59426 2.38022 -3.4495 0.180167 -1.18447e-009 1.5602e-007 -4.87131e-009 
-962.385 91.1404 356.38 3.11738 -10.585 4.29446 -24.4851 -18.4927 -19.552 -47.0686 62.1918 62.2934 10.1255 2.45176 -0.0490693 0.0462048 0.000533403 0.662642 12.4398 19.0645 5.52344 0.0329797 -0.0130891 -0.0203614 -25.5488 30.6885 27.5559 -7.95139e-016 -1.59028e-015 -0 150.646 -71.0877 158.277 -84.7946 57.6849 -52.2163 4.97728 22.8746 -5.48091 29.4761 2.02431 8.5116 54.5875 -29.5743 65.1572 51.9743 56.3021 74.078 -7.54593 23.59 1.6582 12.5748 -23.4754 9.58184 10.4553 42.3832 -1.26775 10.0071 -3.34282 0.637322 -1.18446e-009 1.5602e-007 -4.87131e-009 
-964.898 90.1023 355.094 4.05509 -9.56143 5.79176 -26.0486 -15.638 -17.7293 -42.9203 57.9774 64.0579 11.6679 2.31745 -0.146487 0.0462048 0.000533403 0.662642 9.47835 18.8963 7.59967 0.0291648 -0.011764 -0.0220389 -23.6598 29.3121 24.6418 -3.97569e-016 0 -1.59028e-015 153.269 -72.0397 161.156 -85.1453 57.5143 -53.2966 5.34193 17.4244 16.6294 31.2078 0.531958 7.36247 54.4275 -26.8899 63.7006 50.1314 56.1037 76.4005 -7.43882 24.9285 1.22151 14.0719 -25.1383 9.14121 5.60214 41.4054 3.13391 17.5729 -2.99654 1.03674 -1.18446e-009 1.5602e-007 -4.87132e-009 
-967.546 88.975 353.763 4.79996 -8.49775 7.14434 -27.0532 -12.1432 -14.7766 -33.6234 53.6361 59.0429 15.4872 1.76089 -0.203514 0.0462048 0.000533403 0.662642 7.05958 18.5194 9.28616 0.0244771 -0.00822536 -0.0225635 -22.3373 28.0338 22.3137 2.38542e-015 0 -0 155.237 -72.8146 163.315 -85.3633 57.688 -54.464 6.18601 21.0551 -0.387529 32.3061 -0.598691 6.43266 54.8896 -25.3077 63.073 48.979 55.9372 78.0701 -7.15833 25.4252 0.714062 15.4214 -26.8905 8.86585 1.62914 40.1983 6.48279 24.8558 -2.54835 1.37276 -1.18446e-009 1.5602e-007 -4.87131e-009 
-970.207 87.9053 352.419 5.33938 -7.40893 8.32722 -27.1074 -8.32479 -11.1119 -23.6401 49.0437 50.6245 14.3519 1.18997 -0.156093 0.0462048 0.000533403 0.662642 5.13629 18.0153 10.6364 0.0199551 -0.00468674 -0.0222014 -21.4543 26.7812 20.5095 -3.18055e-015 -3.18055e-015 -3.18055e-015 157.087 -73.3583 165.377 -85.3346 57.8194 -55.1702 5.51236 19.1942 11.154 32.8993 -1.3487 5.62915 55.8883 -24.332 63.1598 48.3522 55.8702 79.0402 -6.80386 25.4201 0.379064 16.5759 -28.5121 8.70715 -1.41464 38.5914 8.80284 31.7969 -1.96849 1.60609 -1.18447e-009 1.5602e-007 -4.87131e-009 
-972.867 86.8722 351.087 5.66976 -6.33283 9.33998 -26.6982 -4.30679 -6.74773 -14.7333 43.7104 40.6736 14.0003 0.257976 -0.0665599 0.0462048 0.000533403 0.662642 3.68004 17.4624 11.6825 0.0168138 -0.00468674 -0.0212186 -20.9413 25.4935 19.1846 -2.38542e-015 0 -3.18055e-015 158.282 -73.6483 166.983 -85.4956 58.0258 -55.6536 6.29474 20.9085 0.550681 32.9329 -1.76544 4.79472 57.4886 -23.5188 63.8519 48.1145 55.9357 79.3542 -6.51769 25.0354 0.0279066 17.5996 -29.9915 8.63721 -3.52544 36.7681 10.0948 38.2667 -1.3385 1.73174 -1.18446e-009 1.5602e-007 -4.87132e-009 
-975.484 85.9082 349.821 5.80723 -5.32159 10.1972 -25.6742 -0.345263 -1.84869 -7.90595 37.9485 30.2368 11.9037 -0.868304 0.101803 0.0462048 0.000533403 0.662642 2.64293 16.9281 12.4431 0.0140674 -0.00468674 -0.0198811 -20.7493 24.174 18.3279 -1.59028e-015 -1.59028e-015 -0 159.15 -73.7361 168.529 -85.7889 58.2154 -55.6224 5.89928 19.2323 7.15255 32.6694 -1.87685 3.92579 59.3597 -22.6917 64.9568 48.1089 56.0925 79.1633 -6.37905 24.7014 -0.262107 18.4669 -31.1864 8.60621 -4.76252 34.6868 10.4043 44.2113 -0.663314 1.73115 -1.18445e-009 1.5602e-007 -4.87131e-009 
-978.001 85.1186 348.643 5.7195 -4.46728 10.956 -25.0131 2.60566 2.63126 -3.91564 33.2602 21.409 11.8779 -1.79966 0.222836 0.0462048 0.000533403 0.662642 2.06193 16.4911 12.8938 0.0140675 -0.00468674 -0.0184548 -20.84 22.8624 17.9263 8.82781e-032 1.59028e-015 -3.18055e-015 159.305 -73.6659 169.714 -86.549 58.4898 -55.2407 6.72513 19.9078 0.383618 32.3253 -1.70007 3.01902 61.2164 -21.8276 66.3203 48.2562 56.305 78.6176 -6.34453 24.3226 -0.547768 19.0815 -32.092 8.48928 -4.14888 32.9279 7.37068 48.6401 -0.0813799 1.59641 -1.18446e-009 1.5602e-007 -4.87132e-009 
-980.368 84.677 347.638 5.47635 -3.87503 11.6737 -24.3742 4.5316 6.63478 0.26214 30.8903 12.1215 8.61667 -2.64168 0.28366 0.0462048 0.000533403 0.662642 1.88653 16.2303 13.0194 0.0140676 -0.00468674 -0.017206 -21.1802 21.6278 17.9573 -7.95139e-016 0 -0 158.999 -73.5076 170.774 -87.7362 58.7832 -54.3458 6.22774 18.513 4.08562 32.0621 -1.361 2.2166 62.7597 -21.0482 67.5603 48.4755 56.5624 77.9756 -6.49286 23.9832 -0.661074 19.2395 -32.4474 8.11348 -2.48608 31.3229 1.98935 52.0367 0.332903 1.39773 -1.18446e-009 1.5602e-007 -4.87131e-009 
-982.511 84.4471 346.822 5.11903 -3.55966 12.3759 -24.2284 5.61964 10.3686 5.18306 29.3024 3.23495 8.67616 -3.02832 0.396053 0.0462048 0.000533403 0.662642 2.08493 16.1398 12.8226 0.0140676 -0.00468674 -0.0164005 -21.7673 20.563 18.403 -1.59028e-015 1.59028e-015 -0 158.257 -73.3015 171.688 -89.3747 59.1592 -53.1105 7.01559 18.9966 -0.341356 31.7061 -0.913208 1.48406 64.1742 -20.3218 68.5915 48.7022 56.8358 77.326 -6.70769 23.6428 -0.739144 19.023 -32.2641 7.44949 -1.10024 29.3361 -2.61982 55.3638 0.681304 1.14952 -1.18446e-009 1.5602e-007 -4.87132e-009 
-984.388 84.4201 346.199 4.68815 -3.51505 13.066 -24.1621 6.06075 13.6795 10.722 28.3411 -4.85857 6.01166 -3.37986 0.392445 0.0462048 0.000533403 0.662642 2.62778 16.1756 12.3369 0.0140676 -0.00468674 -0.0164005 -22.5769 19.7576 19.2213 2.38542e-015 -1.59028e-015 -9.54166e-015 157.48 -73.0726 172.717 -91.2984 59.5381 -51.4987 6.40152 18.2885 1.57113 31.4399 -0.495511 0.938609 65.2423 -19.704 69.1754 48.8774 57.1275 76.7687 -7.03352 23.3296 -0.548645 18.5717 -31.486 6.61184 0.135311 27.0159 -6.53944 58.3784 1.05993 0.834797 -1.18446e-009 1.5602e-007 -4.87132e-009 
-986.081 84.6542 345.664 4.22624 -3.70272 13.7206 -24.4153 6.08417 16.6848 16.3949 27.3939 -11.2719 5.55887 -3.37053 0.465789 0.0462048 0.000533403 0.662642 3.41371 16.3005 11.6316 0.0140676 -0.00468674 -0.0164005 -23.4915 19.1673 20.3319 -0 0 3.18055e-015 156.781 -72.927 173.884 -93.2744 59.9122 -49.8146 6.99279 18.6976 -1.16103 31.0526 0.0475525 0.521655 66.2388 -19.1987 69.4873 48.9607 57.429 76.3302 -7.10185 22.9387 -0.622109 18.0995 -30.2664 5.75515 1.17446 24.5724 -9.69896 61.0255 1.42542 0.466988 -1.18447e-009 1.5602e-007 -4.87131e-009 
-987.543 84.9967 345.193 3.73654 -4.05954 14.2822 -24.0031 5.4749 18.3761 20.1996 26.5589 -15.4352 3.61319 -3.64763 0.490444 0.0462048 0.000533403 0.662642 4.36056 16.4587 10.812 0.0140676 -0.00468674 -0.0164005 -24.4681 18.8017 21.6682 -7.95139e-016 3.18055e-015 -0 156.337 -72.8866 175.274 -95.0865 60.2474 -48.1248 6.4498 18.4497 0.0041942 30.5857 0.652038 0.305267 67.0712 -18.8684 69.5055 48.9521 57.7217 75.974 -7.07535 22.7161 -0.621763 17.7049 -28.8946 5.04713 1.36934 23.2371 -10.5837 64.1432 1.94369 0.0347028 -1.18447e-009 1.5602e-007 -4.87131e-009 
-988.828 85.4704 344.743 3.21931 -4.52056 14.7017 -23.3053 4.77618 18.9582 22.2781 26.1338 -17.2117 4.71887 -3.8888 0.656842 0.0462048 0.000533403 0.662642 5.39288 16.613 9.96399 0.0140676 -0.00468674 -0.0164005 -25.4888 18.6579 23.1822 1.59028e-015 1.59028e-015 -0 155.954 -72.9324 176.617 -96.5336 60.5403 -46.7281 6.95987 19.0759 -1.64993 29.9762 1.27369 0.20294 67.7915 -18.5968 69.3882 48.841 57.9584 75.6759 -6.82648 22.5604 -0.645928 17.5371 -27.6652 4.61806 1.11537 22.5434 -9.56767 67.2701 2.44971 -0.400002 -1.18446e-009 1.5602e-007 -4.87131e-009 
-989.935 86.101 344.324 2.68221 -5.03101 14.9598 -22.1982 4.18458 18.4288 22.9593 26.3055 -17.0667 5.14378 -4.22016 0.793849 0.0462048 0.000533403 0.662642 6.44524 16.739 9.14818 0.0140676 -0.00468674 -0.0164005 -26.5546 18.731 24.8188 1.59028e-015 1.59028e-015 -6.36111e-015 155.563 -72.9833 177.799 -97.6203 60.7692 -45.5776 6.61517 19.1377 -0.913016 29.1631 1.89046 0.259584 68.44 -18.3924 69.186 48.6377 58.1188 75.4251 -6.57898 22.36 -0.582512 17.5883 -26.6631 4.49878 0.511978 22.2371 -7.16781 70.2401 2.93301 -0.828855 -1.18446e-009 1.5602e-007 -4.87132e-009 
-990.881 86.8129 343.943 2.12704 -5.54769 15.0562 -20.9889 3.88116 16.9493 22.2247 26.7918 -14.9581 8.27492 -4.49644 1.0714 0.0462048 0.000533403 0.662642 7.47816 16.8149 8.39863 0.0140676 -0.00468674 -0.0164005 -27.6641 18.9649 26.5481 -7.95139e-016 0 -0 154.997 -72.9919 178.619 -98.3636 60.947 -44.7681 6.98833 19.7661 -1.98098 28.183 2.4168 0.362772 69.0059 -18.126 68.9589 48.4216 58.1979 75.1685 -6.28016 22.2256 -0.440197 17.8729 -26.0132 4.7053 -0.474828 22.3742 -3.86406 72.9848 3.35666 -1.18063 -1.18446e-009 1.5602e-007 -4.87132e-009 
